<svg width="56" height="50" viewBox="0 0 56 50" fill="none" xmlns="http://www.w3.org/2000/svg">
<path d="M51.7565 0.712616C49.4795 0.712616 47.6206 2.52989 47.5279 4.78496C42.0592 7.51469 32.638 12.7019 21.2031 14.3848C20.6347 12.7104 19.062 11.4902 17.2011 11.4902H10.7264C8.59013 11.4902 6.82612 13.0937 6.54073 15.1543C2.76726 15.1656 -0.000408208 18.3948 -0.000411987 22.2169C-0.000408208 26.0445 2.75303 29.2715 6.54073 29.2737C6.82696 31.3343 8.59079 32.9418 10.7264 32.9418H17.2011C17.4218 32.9418 17.6381 32.9202 17.8496 32.8871L21.041 44.1021C21.425 45.4508 20.6691 46.808 19.3203 47.192C17.9716 47.576 16.6144 46.8202 16.2304 45.4713L13.3338 35.2934C13.1824 34.763 12.6301 34.4554 12.0994 34.6058C11.5673 34.7564 11.2584 35.3103 11.41 35.8422L14.3085 46.0182C14.9863 48.3992 17.486 49.7919 19.8672 49.114C22.2481 48.4361 23.6409 45.9365 22.9629 43.5553L21.6074 38.7915C23.0244 38.4923 24.1418 38.0116 24.9806 37.3637C26.0345 36.5497 26.6299 35.4847 26.8751 34.4379C27.1533 33.2503 27.0261 32.1235 26.795 31.1683C35.7025 33.4112 42.9949 37.38 47.5415 39.6489C47.6986 41.844 49.523 43.5943 51.7565 43.5943C54.0922 43.5943 56.0007 41.6858 56.0007 39.3501V17.1524C55.9987 16.6032 55.5538 16.1584 55.0046 16.1563C54.4515 16.1533 54.0008 16.5993 53.9987 17.1524V39.3501C53.9987 40.6124 53.0187 41.5943 51.7565 41.5943C50.4942 41.5943 49.5123 40.6124 49.5123 39.3501V4.95685C49.5123 3.69455 50.4942 2.70486 51.7565 2.70486C53.0187 2.70486 53.9987 3.69455 53.9987 4.95685V13.1504C53.9957 13.7073 54.4477 14.1595 55.0046 14.1563C55.5576 14.1543 56.0039 13.7034 56.0007 13.1504V4.95685C56.0007 2.62112 54.0922 0.712623 51.7565 0.712623L51.7565 0.712616ZM47.5083 6.99594V37.4301C42.0311 34.6611 32.881 29.7885 21.4453 28.1077V16.3184C32.881 14.6376 42.0311 9.76495 47.5083 6.99594ZM10.7264 13.4844H17.2011C18.4472 13.4844 19.4207 14.4493 19.4414 15.6895V28.7366C19.421 29.9768 18.4472 30.9417 17.2011 30.9417H10.7264C9.4669 30.9417 8.48218 29.957 8.48218 28.6975V15.7285C8.48218 14.4691 9.4669 13.4844 10.7264 13.4844ZM6.48214 17.1426V27.2717C3.90696 27.2464 1.99963 25.066 1.99963 22.2169C1.99963 19.354 3.89458 17.1471 6.48214 17.1426ZM21.1973 30.0608C22.3206 30.2262 23.4298 30.4173 24.5157 30.6468C24.8423 31.529 25.197 32.8319 24.9278 33.9808C24.7712 34.6493 24.4513 35.2441 23.7579 35.7797C23.1974 36.2126 22.2628 36.5687 21.0469 36.8188C20.5979 35.2481 20.1503 33.677 19.7031 32.1058C20.3867 31.5952 20.9138 30.8841 21.1973 30.0608Z" fill="#424241"/>
</svg>
